<svg width="87" height="21" viewBox="0 0 87 21" fill="none" xmlns="http://www.w3.org/2000/svg">
<path d="M6.20508 11.9814H2.78613V10.6016H6.20508C6.86719 10.6016 7.40332 10.4961 7.81348 10.2852C8.22363 10.0742 8.52246 9.78125 8.70996 9.40625C8.90332 9.03125 9 8.60352 9 8.12305C9 7.68359 8.90332 7.27051 8.70996 6.88379C8.52246 6.49707 8.22363 6.18652 7.81348 5.95215C7.40332 5.71191 6.86719 5.5918 6.20508 5.5918H3.18164V17H1.48535V4.20312H6.20508C7.17188 4.20312 7.98926 4.37012 8.65723 4.7041C9.3252 5.03809 9.83203 5.50098 10.1777 6.09277C10.5234 6.67871 10.6963 7.34961 10.6963 8.10547C10.6963 8.92578 10.5234 9.62598 10.1777 10.2061C9.83203 10.7861 9.3252 11.2285 8.65723 11.5332C7.98926 11.832 7.17188 11.9814 6.20508 11.9814Z" fill="#4CAF50"/>
<path d="M18.2139 4.20312V17H16.5439V4.20312H18.2139ZM22.3271 4.20312V5.5918H12.4395V4.20312H22.3271ZM24.9375 8.98438V17H23.3115V7.49023H24.8936L24.9375 8.98438ZM27.9082 7.4375L27.8994 8.94922C27.7646 8.91992 27.6357 8.90234 27.5127 8.89648C27.3955 8.88477 27.2607 8.87891 27.1084 8.87891C26.7334 8.87891 26.4023 8.9375 26.1152 9.05469C25.8281 9.17188 25.585 9.33594 25.3857 9.54688C25.1865 9.75781 25.0283 10.0098 24.9111 10.3027C24.7998 10.5898 24.7266 10.9062 24.6914 11.252L24.2344 11.5156C24.2344 10.9414 24.29 10.4023 24.4014 9.89844C24.5186 9.39453 24.6973 8.94922 24.9375 8.5625C25.1777 8.16992 25.4824 7.86523 25.8516 7.64844C26.2266 7.42578 26.6719 7.31445 27.1875 7.31445C27.3047 7.31445 27.4395 7.3291 27.5918 7.3584C27.7441 7.38184 27.8496 7.4082 27.9082 7.4375ZM34.667 15.374V10.4785C34.667 10.1035 34.5908 9.77832 34.4385 9.50293C34.292 9.22168 34.0693 9.00488 33.7705 8.85254C33.4717 8.7002 33.1025 8.62402 32.6631 8.62402C32.2529 8.62402 31.8926 8.69434 31.582 8.83496C31.2773 8.97559 31.0371 9.16016 30.8613 9.38867C30.6914 9.61719 30.6064 9.86328 30.6064 10.127H28.9805C28.9805 9.78711 29.0684 9.4502 29.2441 9.11621C29.4199 8.78223 29.6719 8.48047 30 8.21094C30.334 7.93555 30.7324 7.71875 31.1953 7.56055C31.6641 7.39648 32.1855 7.31445 32.7598 7.31445C33.4512 7.31445 34.0605 7.43164 34.5879 7.66602C35.1211 7.90039 35.5371 8.25488 35.8359 8.72949C36.1406 9.19824 36.293 9.78711 36.293 10.4961V14.9258C36.293 15.2422 36.3193 15.5791 36.3721 15.9365C36.4307 16.2939 36.5156 16.6016 36.627 16.8594V17H34.9307C34.8486 16.8125 34.7842 16.5635 34.7373 16.2529C34.6904 15.9365 34.667 15.6436 34.667 15.374ZM34.9482 11.2344L34.9658 12.377H33.3223C32.8594 12.377 32.4463 12.415 32.083 12.4912C31.7197 12.5615 31.415 12.6699 31.1689 12.8164C30.9229 12.9629 30.7354 13.1475 30.6064 13.3701C30.4775 13.5869 30.4131 13.8418 30.4131 14.1348C30.4131 14.4336 30.4805 14.7061 30.6152 14.9521C30.75 15.1982 30.9521 15.3945 31.2217 15.541C31.4971 15.6816 31.834 15.752 32.2324 15.752C32.7305 15.752 33.1699 15.6465 33.5508 15.4355C33.9316 15.2246 34.2334 14.9668 34.4561 14.6621C34.6846 14.3574 34.8076 14.0615 34.8252 13.7744L35.5195 14.5566C35.4785 14.8027 35.3672 15.0752 35.1855 15.374C35.0039 15.6729 34.7607 15.96 34.4561 16.2354C34.1572 16.5049 33.7998 16.7305 33.3838 16.9121C32.9736 17.0879 32.5107 17.1758 31.9951 17.1758C31.3506 17.1758 30.7852 17.0498 30.2988 16.7979C29.8184 16.5459 29.4434 16.209 29.1738 15.7871C28.9102 15.3594 28.7783 14.8818 28.7783 14.3545C28.7783 13.8447 28.8779 13.3965 29.0771 13.0098C29.2764 12.6172 29.5635 12.292 29.9385 12.0342C30.3135 11.7705 30.7646 11.5713 31.292 11.4365C31.8193 11.3018 32.4082 11.2344 33.0586 11.2344H34.9482ZM40.4766 9.52051V17H38.8506V7.49023H40.3887L40.4766 9.52051ZM40.0898 11.8848L39.4131 11.8584C39.4189 11.208 39.5156 10.6074 39.7031 10.0566C39.8906 9.5 40.1543 9.0166 40.4941 8.60645C40.834 8.19629 41.2383 7.87988 41.707 7.65723C42.1816 7.42871 42.7061 7.31445 43.2803 7.31445C43.749 7.31445 44.1709 7.37891 44.5459 7.50781C44.9209 7.63086 45.2402 7.83008 45.5039 8.10547C45.7734 8.38086 45.9785 8.73828 46.1191 9.17773C46.2598 9.61133 46.3301 10.1416 46.3301 10.7686V17H44.6953V10.751C44.6953 10.2529 44.6221 9.85449 44.4756 9.55566C44.3291 9.25098 44.1152 9.03125 43.834 8.89648C43.5527 8.75586 43.207 8.68555 42.7969 8.68555C42.3926 8.68555 42.0234 8.77051 41.6895 8.94043C41.3613 9.11035 41.0771 9.34473 40.8369 9.64355C40.6025 9.94238 40.418 10.2852 40.2832 10.6719C40.1543 11.0527 40.0898 11.457 40.0898 11.8848ZM54.3369 14.4775C54.3369 14.2432 54.2842 14.0264 54.1787 13.8271C54.0791 13.6221 53.8711 13.4375 53.5547 13.2734C53.2441 13.1035 52.7754 12.957 52.1484 12.834C51.6211 12.7227 51.1436 12.5908 50.7158 12.4385C50.2939 12.2861 49.9336 12.1016 49.6348 11.8848C49.3418 11.668 49.1162 11.4131 48.958 11.1201C48.7998 10.8271 48.7207 10.4844 48.7207 10.0918C48.7207 9.7168 48.8027 9.3623 48.9668 9.02832C49.1367 8.69434 49.374 8.39844 49.6787 8.14062C49.9893 7.88281 50.3613 7.68066 50.7949 7.53418C51.2285 7.3877 51.7119 7.31445 52.2451 7.31445C53.0068 7.31445 53.6572 7.44922 54.1963 7.71875C54.7354 7.98828 55.1484 8.34863 55.4355 8.7998C55.7227 9.24512 55.8662 9.74023 55.8662 10.2852H54.2402C54.2402 10.0215 54.1611 9.7666 54.0029 9.52051C53.8506 9.26855 53.625 9.06055 53.3262 8.89648C53.0332 8.73242 52.6729 8.65039 52.2451 8.65039C51.7939 8.65039 51.4277 8.7207 51.1465 8.86133C50.8711 8.99609 50.6689 9.16895 50.54 9.37988C50.417 9.59082 50.3555 9.81348 50.3555 10.0479C50.3555 10.2236 50.3848 10.3818 50.4434 10.5225C50.5078 10.6572 50.6191 10.7832 50.7773 10.9004C50.9355 11.0117 51.1582 11.1172 51.4453 11.2168C51.7324 11.3164 52.0986 11.416 52.5439 11.5156C53.3232 11.6914 53.9648 11.9023 54.4688 12.1484C54.9727 12.3945 55.3477 12.6963 55.5938 13.0537C55.8398 13.4111 55.9629 13.8447 55.9629 14.3545C55.9629 14.7705 55.875 15.1514 55.6992 15.4971C55.5293 15.8428 55.2803 16.1416 54.9521 16.3936C54.6299 16.6396 54.2432 16.833 53.792 16.9736C53.3467 17.1084 52.8457 17.1758 52.2891 17.1758C51.4512 17.1758 50.7422 17.0264 50.1621 16.7275C49.582 16.4287 49.1426 16.042 48.8438 15.5674C48.5449 15.0928 48.3955 14.5918 48.3955 14.0645H50.0303C50.0537 14.5098 50.1826 14.8643 50.417 15.1279C50.6514 15.3857 50.9385 15.5703 51.2783 15.6816C51.6182 15.7871 51.9551 15.8398 52.2891 15.8398C52.7344 15.8398 53.1064 15.7812 53.4053 15.6641C53.71 15.5469 53.9414 15.3857 54.0996 15.1807C54.2578 14.9756 54.3369 14.7412 54.3369 14.4775ZM59.8652 3.5V17H58.2305V3.5H59.8652ZM68.083 15.374V10.4785C68.083 10.1035 68.0068 9.77832 67.8545 9.50293C67.708 9.22168 67.4854 9.00488 67.1865 8.85254C66.8877 8.7002 66.5186 8.62402 66.0791 8.62402C65.6689 8.62402 65.3086 8.69434 64.998 8.83496C64.6934 8.97559 64.4531 9.16016 64.2773 9.38867C64.1074 9.61719 64.0225 9.86328 64.0225 10.127H62.3965C62.3965 9.78711 62.4844 9.4502 62.6602 9.11621C62.8359 8.78223 63.0879 8.48047 63.416 8.21094C63.75 7.93555 64.1484 7.71875 64.6113 7.56055C65.0801 7.39648 65.6016 7.31445 66.1758 7.31445C66.8672 7.31445 67.4766 7.43164 68.0039 7.66602C68.5371 7.90039 68.9531 8.25488 69.252 8.72949C69.5566 9.19824 69.709 9.78711 69.709 10.4961V14.9258C69.709 15.2422 69.7354 15.5791 69.7881 15.9365C69.8467 16.2939 69.9316 16.6016 70.043 16.8594V17H68.3467C68.2646 16.8125 68.2002 16.5635 68.1533 16.2529C68.1064 15.9365 68.083 15.6436 68.083 15.374ZM68.3643 11.2344L68.3818 12.377H66.7383C66.2754 12.377 65.8623 12.415 65.499 12.4912C65.1357 12.5615 64.8311 12.6699 64.585 12.8164C64.3389 12.9629 64.1514 13.1475 64.0225 13.3701C63.8936 13.5869 63.8291 13.8418 63.8291 14.1348C63.8291 14.4336 63.8965 14.7061 64.0312 14.9521C64.166 15.1982 64.3682 15.3945 64.6377 15.541C64.9131 15.6816 65.25 15.752 65.6484 15.752C66.1465 15.752 66.5859 15.6465 66.9668 15.4355C67.3477 15.2246 67.6494 14.9668 67.8721 14.6621C68.1006 14.3574 68.2236 14.0615 68.2412 13.7744L68.9355 14.5566C68.8945 14.8027 68.7832 15.0752 68.6016 15.374C68.4199 15.6729 68.1768 15.96 67.8721 16.2354C67.5732 16.5049 67.2158 16.7305 66.7998 16.9121C66.3896 17.0879 65.9268 17.1758 65.4111 17.1758C64.7666 17.1758 64.2012 17.0498 63.7148 16.7979C63.2344 16.5459 62.8594 16.209 62.5898 15.7871C62.3262 15.3594 62.1943 14.8818 62.1943 14.3545C62.1943 13.8447 62.2939 13.3965 62.4932 13.0098C62.6924 12.6172 62.9795 12.292 63.3545 12.0342C63.7295 11.7705 64.1807 11.5713 64.708 11.4365C65.2354 11.3018 65.8242 11.2344 66.4746 11.2344H68.3643ZM76.248 7.49023V8.73828H71.1064V7.49023H76.248ZM72.8467 5.17871H74.4727V14.6445C74.4727 14.9668 74.5225 15.21 74.6221 15.374C74.7217 15.5381 74.8506 15.6465 75.0088 15.6992C75.167 15.752 75.3369 15.7783 75.5186 15.7783C75.6533 15.7783 75.7939 15.7666 75.9404 15.7432C76.0928 15.7139 76.207 15.6904 76.2832 15.6729L76.292 17C76.1631 17.041 75.9932 17.0791 75.7822 17.1143C75.5771 17.1553 75.3281 17.1758 75.0352 17.1758C74.6367 17.1758 74.2705 17.0967 73.9365 16.9385C73.6025 16.7803 73.3359 16.5166 73.1367 16.1475C72.9434 15.7725 72.8467 15.2686 72.8467 14.6357V5.17871ZM82.1016 17.1758C81.4395 17.1758 80.8389 17.0645 80.2998 16.8418C79.7666 16.6133 79.3066 16.2939 78.9199 15.8838C78.5391 15.4736 78.2461 14.9873 78.041 14.4248C77.8359 13.8623 77.7334 13.2471 77.7334 12.5791V12.21C77.7334 11.4365 77.8477 10.748 78.0762 10.1445C78.3047 9.53516 78.6152 9.01953 79.0078 8.59766C79.4004 8.17578 79.8457 7.85645 80.3438 7.63965C80.8418 7.42285 81.3574 7.31445 81.8906 7.31445C82.5703 7.31445 83.1562 7.43164 83.6484 7.66602C84.1465 7.90039 84.5537 8.22852 84.8701 8.65039C85.1865 9.06641 85.4209 9.55859 85.5732 10.127C85.7256 10.6895 85.8018 11.3047 85.8018 11.9727V12.7021H78.7002V11.375H84.1758V11.252C84.1523 10.8301 84.0645 10.4199 83.9121 10.0215C83.7656 9.62305 83.5312 9.29492 83.209 9.03711C82.8867 8.7793 82.4473 8.65039 81.8906 8.65039C81.5215 8.65039 81.1816 8.72949 80.8711 8.8877C80.5605 9.04004 80.2939 9.26855 80.0713 9.57324C79.8486 9.87793 79.6758 10.25 79.5527 10.6895C79.4297 11.1289 79.3682 11.6357 79.3682 12.21V12.5791C79.3682 13.0303 79.4297 13.4551 79.5527 13.8535C79.6816 14.2461 79.8662 14.5918 80.1064 14.8906C80.3525 15.1895 80.6484 15.4238 80.9941 15.5938C81.3457 15.7637 81.7441 15.8486 82.1895 15.8486C82.7637 15.8486 83.25 15.7314 83.6484 15.4971C84.0469 15.2627 84.3955 14.9492 84.6943 14.5566L85.6787 15.3389C85.4736 15.6494 85.2129 15.9453 84.8965 16.2266C84.5801 16.5078 84.1904 16.7363 83.7275 16.9121C83.2705 17.0879 82.7285 17.1758 82.1016 17.1758Z" fill="#3C4043"/>
</svg>
