<svg width="23" height="23" viewBox="0 0 23 23" fill="none" xmlns="http://www.w3.org/2000/svg">
<g clip-path="url(#clip0_321_956)">
<path d="M15.3334 7.66667V4.98333C15.3334 3.9099 15.3334 3.37318 15.1244 2.96319C14.9407 2.60254 14.6475 2.30933 14.2868 2.12557C13.8768 1.91667 13.3401 1.91667 12.2667 1.91667H4.98335C3.90992 1.91667 3.3732 1.91667 2.96321 2.12557C2.60256 2.30933 2.30935 2.60254 2.12559 2.96319C1.91669 3.37318 1.91669 3.9099 1.91669 4.98333V12.2667C1.91669 13.3401 1.91669 13.8768 2.12559 14.2868C2.30935 14.6475 2.60256 14.9407 2.96321 15.1244C3.3732 15.3333 3.90992 15.3333 4.98335 15.3333H7.66669M10.7334 21.0833H18.0167C19.0901 21.0833 19.6268 21.0833 20.0368 20.8744C20.3975 20.6907 20.6907 20.3975 20.8745 20.0368C21.0834 19.6268 21.0834 19.0901 21.0834 18.0167V10.7333C21.0834 9.6599 21.0834 9.12318 20.8745 8.71319C20.6907 8.35254 20.3975 8.05933 20.0368 7.87557C19.6268 7.66667 19.0901 7.66667 18.0167 7.66667H10.7334C9.65992 7.66667 9.1232 7.66667 8.71321 7.87557C8.35256 8.05933 8.05935 8.35254 7.87559 8.71319C7.66669 9.12318 7.66669 9.6599 7.66669 10.7333V18.0167C7.66669 19.0901 7.66669 19.6268 7.87559 20.0368C8.05935 20.3975 8.35256 20.6907 8.71321 20.8744C9.1232 21.0833 9.65992 21.0833 10.7334 21.0833Z" stroke="#AEAEAE" stroke-width="2" stroke-linecap="round" stroke-linejoin="round"/>
</g>
<defs>
<clipPath id="clip0_321_956">
<rect width="23" height="23" fill="white"/>
</clipPath>
</defs>
</svg>
