<svg width="23" height="22" viewBox="0 0 23 22" fill="none" xmlns="http://www.w3.org/2000/svg">
<path d="M3.25 7.15C3.25 5.60986 3.25 4.83978 3.54973 4.25153C3.81338 3.73408 4.23408 3.31338 4.75153 3.04973C5.33978 2.75 6.10986 2.75 7.65 2.75H15.35C16.8901 2.75 17.6602 2.75 18.2485 3.04973C18.7659 3.31338 19.1866 3.73408 19.4503 4.25153C19.75 4.83978 19.75 5.60986 19.75 7.15V14.85C19.75 16.3901 19.75 17.1602 19.4503 17.7485C19.1866 18.2659 18.7659 18.6866 18.2485 18.9503C17.6602 19.25 16.8901 19.25 15.35 19.25H7.65C6.10986 19.25 5.33978 19.25 4.75153 18.9503C4.23408 18.6866 3.81338 18.2659 3.54973 17.7485C3.25 17.1602 3.25 16.3901 3.25 14.85V7.15Z" stroke="#606469" stroke-width="2" stroke-linecap="round" stroke-linejoin="round"/>
</svg>
