<svg width="23" height="22" viewBox="0 0 23 22" fill="none" xmlns="http://www.w3.org/2000/svg">
<g id="play">
<path id="Icon" d="M5.08331 4.57383C5.08331 3.68359 5.08331 3.23848 5.26893 2.99311C5.43063 2.77936 5.67779 2.64708 5.94534 2.63111C6.25246 2.61277 6.62282 2.85967 7.36354 3.35349L17.0028 9.77966C17.6148 10.1877 17.9209 10.3917 18.0275 10.6489C18.1207 10.8737 18.1207 11.1263 18.0275 11.3512C17.9209 11.6083 17.6148 11.8123 17.0028 12.2203L7.36354 18.6465C6.62282 19.1403 6.25246 19.3872 5.94534 19.3689C5.67779 19.3529 5.43063 19.2206 5.26893 19.0069C5.08331 18.7615 5.08331 18.3164 5.08331 17.4262V4.57383Z" stroke="#606469" stroke-width="2" stroke-linecap="round" stroke-linejoin="round"/>
</g>
</svg>
