<svg width="25" height="24" viewBox="0 0 25 24" fill="none" xmlns="http://www.w3.org/2000/svg">
<path d="M3.5 7.8C3.5 6.11984 3.5 5.27976 3.82698 4.63803C4.1146 4.07354 4.57354 3.6146 5.13803 3.32698C5.77976 3 6.61984 3 8.3 3H16.7C18.3802 3 19.2202 3 19.862 3.32698C20.4265 3.6146 20.8854 4.07354 21.173 4.63803C21.5 5.27976 21.5 6.11984 21.5 7.8V16.2C21.5 17.8802 21.5 18.7202 21.173 19.362C20.8854 19.9265 20.4265 20.3854 19.862 20.673C19.2202 21 18.3802 21 16.7 21H8.3C6.61984 21 5.77976 21 5.13803 20.673C4.57354 20.3854 4.1146 19.9265 3.82698 19.362C3.5 18.7202 3.5 17.8802 3.5 16.2V7.8Z" stroke="#606469" stroke-width="2" stroke-linecap="round" stroke-linejoin="round"/>
<path d="M8.5 9.6C8.5 9.03995 8.5 8.75992 8.60899 8.54601C8.70487 8.35785 8.85785 8.20487 9.04601 8.10899C9.25992 8 9.53995 8 10.1 8H14.9C15.4601 8 15.7401 8 15.954 8.10899C16.1422 8.20487 16.2951 8.35785 16.391 8.54601C16.5 8.75992 16.5 9.03995 16.5 9.6V14.4C16.5 14.9601 16.5 15.2401 16.391 15.454C16.2951 15.6422 16.1422 15.7951 15.954 15.891C15.7401 16 15.4601 16 14.9 16H10.1C9.53995 16 9.25992 16 9.04601 15.891C8.85785 15.7951 8.70487 15.6422 8.60899 15.454C8.5 15.2401 8.5 14.9601 8.5 14.4V9.6Z" stroke="#606469" stroke-width="2" stroke-linecap="round" stroke-linejoin="round"/>
</svg>
